<svg xmlns="http://www.w3.org/2000/svg" viewBox="0 0 207 64" width="207" height="64" role="img" aria-label="QikLog">
  <title>QikLog</title>
  <desc>Field Clinical lockup. Mark + Bricolage Grotesque 800 wordmark. Adapts to light and dark surfaces.</desc>
  <style>
    .mark { stroke: #B94700; fill: none; stroke-width: 8; stroke-linecap: round; stroke-linejoin: round; }
    .ink { fill: #2E2A26; }
    .rust { fill: #B94700; }
    @media (prefers-color-scheme: dark) {
      .mark { stroke: #FCFAF5; }
      .ink { fill: #FCFAF5; }
      .rust { fill: #B94700; }
    }
  </style>
  <g class="mark">
    <path d="M38 52 L22 52 A12 12 0 0 1 10 40 L10 20 A12 12 0 0 1 22 8 L42 8 A12 12 0 0 1 54 20 L54 36"/>
    <path d="M26 20 L38 30 L26 40"/>
    <path d="M43 41 L55 53"/>
  </g>
  <path class="ink" d="M104.32 52.28Q101.44 52.88 99.42 53.03Q97.39 53.18 95.83 53.02Q94.27 52.86 92.81 52.55Q91.34 52.24 89.62 51.93Q87.9 51.62 85.57 51.46Q83.23 51.3 79.87 51.47V46.2Q80.97 46.28 82.57 46.26Q84.16 46.24 85.99 46.1Q87.81 45.96 89.61 45.72Q91.41 45.48 92.9 45.11Q94.4 44.74 95.3 44.23V43.83Q92.05 44.76 89.51 44.69Q86.96 44.63 85.06 43.73Q83.16 42.83 81.93 41.23Q80.71 39.62 80.1 37.46Q79.49 35.3 79.49 32.72Q79.49 29.75 80.28 27.25Q81.07 24.75 82.65 22.92Q84.23 21.09 86.59 20.06Q88.94 19.04 92.1 19.04Q96.03 19.04 98.79 20.66Q101.55 22.29 103 25.33Q104.45 28.38 104.45 32.66Q104.45 36.5 103.37 39.07Q102.29 41.64 100.39 43.24Q98.5 44.84 95.97 45.68Q93.45 46.53 90.53 46.89L90.55 47.33Q92.82 47.62 94.63 47.8Q96.43 47.99 98.02 47.99Q99.61 47.99 101.13 47.77Q102.66 47.55 104.32 47.02ZM92.1 41.59Q93.89 41.59 95.17 40.74Q96.46 39.89 97.15 38.01Q97.85 36.14 97.85 33.11Q97.85 30.11 97.18 28.16Q96.51 26.21 95.19 25.23Q93.86 24.25 91.9 24.25Q90.17 24.25 88.86 25.14Q87.56 26.02 86.85 27.92Q86.13 29.81 86.13 32.88Q86.13 35.97 86.84 37.9Q87.55 39.83 88.9 40.71Q90.26 41.59 92.1 41.59Z"/>
  <path class="ink" d="M106.78 46V24.88H113.23V46ZM110 22.51Q108.16 22.51 107.18 21.74Q106.2 20.96 106.2 19.49Q106.2 17.98 107.18 17.2Q108.16 16.42 110 16.42Q111.88 16.42 112.86 17.21Q113.84 17.99 113.84 19.49Q113.84 20.94 112.86 21.73Q111.88 22.51 110 22.51Z"/>
  <path class="ink" d="M116.14 46V17.52H122.46V32.98Q123.7 32.19 124.71 31.25Q125.71 30.3 126.49 29.25Q127.27 28.21 127.85 27.11Q128.43 26.01 128.85 24.88H136.25Q135.76 26.46 134.88 27.98Q134.01 29.5 132.74 30.8Q131.47 32.1 129.75 33.07Q128.03 34.05 125.89 34.52V35.07Q128.62 34.58 130.36 35.01Q132.1 35.45 133.13 36.5Q134.17 37.55 134.72 38.99Q135.28 40.44 135.63 41.98L136.5 46H129.5L129.09 43.37Q128.79 41.7 128.36 40.41Q127.93 39.12 127.02 38.37Q126.1 37.63 124.29 37.63H122.46V46Z"/>
  <path class="rust" d="M138.33 46V19.6H144.78V46ZM139.47 46V40.55H155.23V46Z"/>
  <path class="rust" d="M166.23 46.56Q163.07 46.56 160.66 45.33Q158.24 44.1 156.87 41.63Q155.51 39.15 155.51 35.43Q155.51 31.65 156.9 29.19Q158.29 26.73 160.73 25.52Q163.17 24.32 166.28 24.32Q169.47 24.32 171.89 25.55Q174.31 26.78 175.67 29.24Q177.02 31.7 177.02 35.44Q177.02 39.27 175.61 41.75Q174.19 44.22 171.75 45.39Q169.3 46.56 166.23 46.56ZM166.41 41.85Q167.77 41.85 168.67 41.17Q169.58 40.49 170.05 39.13Q170.51 37.77 170.51 35.82Q170.51 33.72 170.01 32.28Q169.5 30.83 168.53 30.06Q167.57 29.29 166.1 29.29Q164.79 29.29 163.87 29.97Q162.95 30.65 162.49 32.01Q162.02 33.37 162.02 35.35Q162.02 38.53 163.17 40.19Q164.33 41.85 166.41 41.85Z"/>
  <path class="rust" d="M187.43 52.96Q183.89 52.96 181.71 52.41Q179.53 51.86 178.54 50.84Q177.56 49.81 177.56 48.37Q177.56 46.57 178.99 45.45Q180.43 44.33 183.2 44.07V43.5Q181.07 43.5 179.9 42.95Q178.73 42.4 178.73 41.18Q178.73 40.05 179.84 39.13Q180.96 38.21 183.54 37.91V37.31Q181.2 36.97 179.83 35.53Q178.46 34.08 178.46 31.74Q178.46 29.73 179.55 28.15Q180.65 26.58 182.81 25.65Q184.98 24.72 188.15 24.72H198.92V29.61L192 28.71V29.4Q194.91 29.79 196.05 30.73Q197.2 31.66 197.2 33.17Q197.2 34.71 196.19 35.92Q195.17 37.13 193.22 37.81Q191.27 38.49 188.46 38.49Q187.81 38.49 187.09 38.43Q186.38 38.38 185.21 38.22Q184.55 38.66 184.19 39Q183.82 39.35 183.82 39.67Q183.82 39.89 184 40.03Q184.18 40.16 184.53 40.22Q184.87 40.29 185.3 40.29H191.72Q192.54 40.29 193.82 40.39Q195.1 40.49 196.39 41Q197.67 41.51 198.54 42.67Q199.42 43.83 199.42 45.97Q199.42 48.35 198.12 49.9Q196.83 51.46 194.18 52.21Q191.53 52.96 187.43 52.96ZM187.91 47.6Q190.38 47.6 191.66 47.39Q192.94 47.17 193.4 46.74Q193.86 46.3 193.86 45.67Q193.86 45.02 193.56 44.65Q193.26 44.27 192.81 44.12Q192.35 43.97 191.89 43.93Q191.43 43.9 191.13 43.9H185.86Q184.47 44.09 183.87 44.65Q183.27 45.22 183.27 45.97Q183.27 46.65 183.78 47Q184.29 47.35 185.31 47.47Q186.34 47.6 187.91 47.6ZM188.04 35.15Q189.57 35.15 190.36 34.29Q191.15 33.42 191.15 32.02Q191.15 30.55 190.34 29.62Q189.53 28.69 188.05 28.69Q186.55 28.69 185.71 29.62Q184.87 30.55 184.87 32.02Q184.87 32.94 185.23 33.65Q185.6 34.37 186.31 34.76Q187.02 35.15 188.04 35.15Z"/>
</svg>
